Coordinates
version=1
nRows=8
nColumns=36
inDegrees=yes

Units are S.I. units (second, meters, Newtons, ...)
If the header above contains a line with 'inDegrees', this indicates whether rotational values are in degrees (yes) or radians (no).

endheader
time	pelvis_tilt	pelvis_list	pelvis_rotation	pelvis_tx	pelvis_ty	pelvis_tz	hip_flexion_r	hip_adduction_r	hip_rotation_r	knee_angle_r	knee_angle_r_beta	ankle_angle_r	subtalar_angle_r	mtp_angle_r	hip_flexion_l	hip_adduction_l	hip_rotation_l	knee_angle_l	knee_angle_l_beta	ankle_angle_l	subtalar_angle_l	mtp_angle_l	lumbar_extension	lumbar_bending	lumbar_rotation	arm_flex_r	arm_add_r	arm_rot_r	elbow_flex_r	pro_sup_r	arm_flex_l	arm_add_l	arm_rot_l	elbow_flex_l	pro_sup_l
      9.31666670	     -7.78743222	      2.79061636	     -3.95734534	     -0.08015630	      0.96130684	      0.08585241	     16.15404627	     -2.26433548	     -1.33128345	     13.66716587	      0.23853704	      6.36888139	     -8.02023297	     -7.49999987	     16.69842669	     -0.48092944	      3.67657614	     15.10598860	      0.26364924	      8.04218960	     -4.22148619	     -7.49999987	     -5.57733046	      1.10665012	      2.19234640	     46.40801622	      9.50953078	     64.74301249	    117.92627595	     91.35120583	     55.42103527	      7.58943546	     66.31934116	    117.32016264	     68.89807498
      9.33333330	     -8.34534077	      2.77228895	     -4.04443226	     -0.08368984	      0.95835580	      0.08574140	     18.16988791	     -2.22117239	     -1.05950731	     16.00955033	      0.27941937	      7.11502718	     -8.64933975	     -7.49999987	     18.49024626	     -0.63520843	      3.67510633	     16.87173304	      0.29446729	      8.79665526	     -4.65093464	     -7.49999987	     -6.02897640	      1.06314230	      1.98195575	     48.16066186	      9.77003428	     64.79215238	    117.89287621	     89.50541216	     57.28101516	      7.42735551	     66.38097635	    117.15631029	     68.55564623
      9.35000000	     -9.05680501	      2.81040467	     -4.13668054	     -0.08794096	      0.95623896	      0.08582196	     20.58531531	     -2.14397221	     -0.31916799	     18.58352139	      0.32434363	      7.18937220	    -10.44732277	     -7.49999987	     20.63098155	     -0.71905222	      3.75009269	     18.86439995	      0.32924589	      9.38156436	     -5.43309409	     -7.49999987	     -6.39741510	      0.94951432	      1.92933351	     49.73315842	      9.97350884	     64.87459686	    117.50771083	     92.55745817	     59.12847596	      7.22412130	     66.80461972	    116.97342984	     68.32032054
      9.36666670	     -9.20896950	      2.79095621	     -4.05125823	     -0.08926038	      0.95037661	      0.08473709	     22.45763610	     -2.21224460	     -0.14660291	     21.46964511	      0.37471600	      8.05697132	    -11.28917148	     -7.49999987	     22.17952592	     -0.74542727	      3.86216883	     21.10661966	      0.36838001	     10.38318775	     -6.07665799	     -7.49999987	     -7.45234050	      0.89147761	      1.70898823	     51.42182965	     10.16825811	     64.60511837	    117.19684529	     92.57850067	     61.00320348	      7.14198643	     66.80398916	    116.81308955	     68.32080503
      9.38333330	    -10.15211022	      2.89300294	     -3.89216911	     -0.09178430	      0.94454567	      0.08496168	     25.36449729	     -2.32642459	      0.15985973	     24.67797244	      0.43071187	      9.14898715	    -12.09908397	     -7.49999987	     24.73621918	     -0.74657671	      3.77155438	     23.61781067	      0.41220856	     11.49882130	     -6.42102569	     -7.49999987	     -7.43615976	      0.74485764	      1.46674730	     52.66138047	     10.24079898	     64.97377815	    116.88886818	     90.61142003	     62.57891950	      6.78696298	     67.62651971	    116.86299121	     67.87042892
      9.40000000	    -10.79793898	      2.99388395	     -3.74975804	     -0.09451616	      0.93614568	      0.08431861	     28.02755463	     -2.48979020	      0.46885950	     28.08519554	      0.49017913	     10.30550083	    -12.92646474	     -7.49999987	     27.03285702	     -0.68481488	      3.75270606	     26.38416662	      0.46049058	     12.76940158	     -6.69355770	     -7.49999987	     -7.81783221	      0.58924278	      1.16757962	     54.14921977	     10.29922728	     64.71501593	    116.52632674	     90.91637255	     64.41524618	      6.56245492	     67.79932744	    116.55091643	     67.81737295
      9.41666670	    -11.46727974	      3.07432049	     -3.40189901	     -0.09497277	      0.93078538	      0.08364455	     30.53988098	     -2.77136367	      0.34941994	     31.34724503	      0.54711264	     11.46178245	    -13.25257998	     -7.49999987	     29.24640486	     -0.57580646	      3.76134680	     29.13375584	      0.50847996	     13.91057659	     -6.75318769	     -7.49999987	     -8.23454073	      0.53249428	      0.96997295	     55.40304958	     10.11098899	     64.62001103	    116.36039332	     89.39847923	     65.89961396	      6.57976355	     67.95146619	    116.38433718	     67.38279565
      9.43333330	    -12.20495329	      3.08802427	     -3.16568059	     -0.09627309	      0.92368915	      0.08364489	     32.96072884	     -2.97557330	      0.13812571	     34.24866576	      0.59775198	     12.83241677	    -13.36038312	     -7.49999987	     31.40945823	     -0.56475740	      3.77243486	     31.80383488	      0.55508163	     15.44694750	     -6.39037836	     -7.49999987	     -8.51679107	      0.49855241	      0.81631729	     56.50408787	      9.88732160	     64.87546531	    116.54258482	     88.56127699	     67.21009888	      6.57438826	     68.40336907	    116.41585510	     67.05630195
